<svg xmlns="http://www.w3.org/2000/svg" width="300" height="344.3" viewBox="0 0 300 344.30007">
<title>Botafogo Futebol Clube (PB)</title>
<path fill="#FFF" d="m1.2227,54.778v-0.02638l0.294-4.5482,4.5494,0.07915c41.801,0.776,61.015-12.363,79.693-25.129,16.881-11.56,33.371-22.826,64.121-24.538h0.50758c30.614,1.7125,47.045,12.952,63.931,24.486,18.679,12.791,37.921,25.957,79.88,25.181l4.5494-0.07915,0.294,4.5482c5.4855,86.062-22.398,159.04-74.741,220.59-10.143,11.936-21.194,23.442-33.13,34.495-11.882,11.053-24.593,21.649-38.053,31.846-0.0264,0.0528-0.0804,0.0792-0.10805,0.1068-0.18595,0.16082-0.0791,0.054-0.0264,0l-2.837,2.1686-2.891-2.1686c-69.76-52.76-118.68-116.34-137.79-192.45-3.7466-14.93-6.3423-30.21-7.7332-45.89-1.3921-15.713-1.5793-31.929-0.5088-48.682zm151.79,287zm-5.7531-7.6s-0.50759,0.40079-0.0792,0.0792l0.0792-0.0792zm5.7531,7.6z"/>
<path d="m0.68746,54.323,0,0l0.294-4.576,4.5494,0.081c41.934,0.776,61.201-12.391,79.907-25.181,16.962-11.614,33.502-22.907,64.302-24.621l0.27-0.02638,0.27,0.02638c30.694,1.7125,47.152,12.979,64.092,24.566,18.732,12.791,38.028,26.011,80.093,25.235l4.5771-0.08041,0.26761,4.5758c5.54,86.307-22.45,159.47-74.93,221.18-10.169,11.989-21.275,23.496-33.211,34.601-11.909,11.079-24.646,21.73-38.161,31.953-0.0528,0.0264-0.0792,0.054-0.1068,0.0804-0.21359,0.15957-0.0791,0.0528-0.0264,0.0264l-2.8621,2.1409-2.891-2.1673c-69.951-52.88-119-116.65-138.16-192.97-3.7742-14.96-6.3687-30.29-7.7608-46-1.3921-15.761-1.5793-32.031-0.50884-48.837zm9.286,5.085c-0.7224,14.691-0.4548,28.981,0.7765,42.922,1.3645,15.414,3.8534,30.239,7.4392,44.529,18.357,72.976,65.082,134.31,131.82,185.48,12.256-9.4205,23.844-19.134,34.682-29.196,11.668-10.863,22.505-22.104,32.406-33.771,49.99-58.77,77.04-128.26,72.92-209.96-41.88-0.187-61.73-13.755-81.03-26.948-15.73-10.758-31.07-21.248-58.98-22.88-28.04,1.6319-43.43,12.148-59.192,22.933-19.268,13.166-39.098,26.708-80.844,26.895zm142.9,282.72zm-5.7531-7.6012c0-0.0264-0.50758,0.37441-0.0791,0.054l0.0791-0.054zm5.7807,7.6012z"/>
<path d="m21.642,70.861c0,101.77,44.235,181.92,128.37,245.79,83.06-64.97,128.34-143.99,128.34-245.79-88.12-13.059-77.33-46.938-128.34-48.731-52.022,0.696-40.22,35.672-128.37,48.731z"/>
<polygon fill="#fe1108" transform="matrix(1.2564046,0,0,1.2564046,2.0794349e-4,-9.810708e-6)" points="160.42,176.25,119.76,146.92,79.439,177.38,79.439,177.38,95.094,128.03,55.009,96.592,105,96.592,119.76,52.076,134.88,96.592,186,96.592,145.89,128.03"/>
</svg>